<svg width="18" height="18" viewBox="0 0 18 18" fill="none" xmlns="http://www.w3.org/2000/svg">
<g opacity="0.6" clip-path="url(#clip0_75_2170)">
<path d="M9 15.75C12.7279 15.75 15.75 12.7279 15.75 9C15.75 5.27208 12.7279 2.25 9 2.25C5.27208 2.25 2.25 5.27208 2.25 9C2.25 12.7279 5.27208 15.75 9 15.75Z" stroke="white" stroke-width="1.25" stroke-linecap="round" stroke-linejoin="round"/>
<path d="M9 12.75V12.7571" stroke="white" stroke-width="1.25" stroke-linecap="round" stroke-linejoin="round"/>
<path d="M9 10.125C8.98619 9.88153 9.05187 9.64017 9.18714 9.43726C9.32241 9.23436 9.51995 9.0809 9.75 9C10.0319 8.8922 10.2849 8.72043 10.4892 8.49822C10.6934 8.27601 10.8433 8.00942 10.927 7.71944C11.0107 7.42947 11.0259 7.12402 10.9715 6.82715C10.9171 6.53028 10.7946 6.25009 10.6135 6.00864C10.4324 5.76719 10.1977 5.57107 9.92797 5.43572C9.65821 5.30037 9.36071 5.22948 9.05889 5.22865C8.75708 5.22781 8.45919 5.29704 8.18868 5.43089C7.91817 5.56474 7.68243 5.75956 7.5 6" stroke="white" stroke-width="1.25" stroke-linecap="round" stroke-linejoin="round"/>
</g>
<defs>
<clipPath id="clip0_75_2170">
<rect width="18" height="18" fill="white"/>
</clipPath>
</defs>
</svg>
