<svg width="16" height="16" viewBox="0 0 16 16" fill="none" xmlns="http://www.w3.org/2000/svg">
<circle cx="8" cy="8" r="8" fill="#22BC7B"/>
<path d="M9.56836 5.60352L8.29004 13H6.03418L7.31934 5.60352H9.56836ZM7.51758 3.7373C7.50846 3.38184 7.62695 3.09928 7.87305 2.88965C8.1237 2.68001 8.41764 2.57292 8.75488 2.56836C9.07845 2.5638 9.36556 2.65951 9.61621 2.85547C9.86686 3.04688 9.99447 3.31348 9.99902 3.65527C10.0081 4.01074 9.88737 4.29329 9.63672 4.50293C9.39062 4.71257 9.09896 4.81966 8.76172 4.82422C8.43815 4.82878 8.15104 4.73535 7.90039 4.54395C7.6543 4.34798 7.52669 4.0791 7.51758 3.7373Z" fill="#17152A"/>
</svg>
